<?xml version="1.0" standalone="no"?>
<!DOCTYPE svg PUBLIC "-//W3C//DTD SVG 20010904//EN"
 "http://www.w3.org/TR/2001/REC-SVG-20010904/DTD/svg10.dtd">
<svg version="1.0" xmlns="http://www.w3.org/2000/svg"
 width="300.000000pt" height="299.000000pt" viewBox="0 0 300.000000 299.000000"
 preserveAspectRatio="xMidYMid meet">
<metadata>
Created by potrace 1.10, written by Peter Selinger 2001-2011
</metadata>
<g transform="translate(0.000000,299.000000) scale(0.100000,-0.100000)"
fill="#000000" stroke="none">
<path d="M1235 2810 c-88 -9 -173 -34 -220 -66 -20 -13 -40 -24 -44 -24 -5 0
-23 -16 -40 -35 -17 -19 -34 -35 -39 -35 -5 0 -24 -18 -43 -41 -19 -23 -44
-52 -56 -65 -12 -13 -25 -34 -29 -46 -3 -13 -14 -34 -24 -48 -19 -27 -52 -131
-70 -220 -6 -30 -10 -102 -8 -160 2 -85 6 -105 18 -105 8 0 20 -4 26 -7 21
-14 143 -20 229 -13 103 8 125 25 144 103 31 125 63 210 84 220 21 10 21 11
-6 11 -21 1 -30 -5 -34 -19 -3 -11 -10 -20 -17 -20 -6 0 -20 -30 -30 -67 -46
-162 -46 -162 -76 -178 -34 -18 -194 -21 -252 -5 -45 13 -52 31 -49 125 5 215
77 379 228 518 47 43 118 91 152 102 12 3 19 9 17 13 -2 4 10 7 27 8 18 0 45
3 62 7 122 27 434 10 520 -28 17 -7 48 -17 70 -20 22 -4 45 -11 50 -15 6 -4
28 -13 50 -20 22 -7 42 -16 45 -19 3 -3 29 -17 58 -31 45 -20 81 -52 133 -118
6 -7 29 -52 52 -100 40 -84 42 -91 45 -197 2 -60 -1 -116 -7 -124 -9 -13 -102
-18 -156 -7 -11 2 -59 7 -107 11 -100 9 -98 7 -161 117 -40 72 -57 86 -57 51
0 -18 79 -181 91 -189 6 -3 33 -8 62 -10 29 -3 88 -9 132 -15 110 -13 188 -11
204 4 11 10 12 7 7 -16 -5 -21 -3 -28 6 -25 19 7 26 50 26 178 1 85 -3 128
-16 165 -28 80 -96 196 -143 244 -51 51 -208 130 -309 156 -36 9 -90 24 -120
34 -62 21 -304 33 -425 21z"/>
<path d="M1666 2270 c-9 -23 -13 -52 -10 -69 8 -37 -13 -126 -33 -143 -8 -6
-22 -13 -32 -15 -67 -11 -168 -20 -233 -22 -104 -3 -119 12 -143 143 -17 95
-29 117 -40 73 -7 -26 20 -188 35 -217 6 -11 23 -23 38 -27 60 -17 357 4 404
28 25 13 38 72 38 177 0 75 3 92 15 92 8 0 15 5 15 10 0 6 -9 10 -19 10 -13 0
-24 -13 -35 -40z"/>
<path d="M1723 2010 c-24 -10 -30 -25 -14 -34 5 -3 14 1 21 9 7 8 25 15 41 15
16 0 29 5 29 10 0 12 -47 12 -77 0z"/>
<path d="M2174 1993 c4 -9 7 -58 7 -109 l0 -94 35 -16 c35 -17 64 -58 64 -91
0 -31 -47 -121 -72 -137 -21 -13 -26 -30 -37 -108 -38 -270 -69 -332 -224
-449 -106 -80 -117 -97 -117 -181 0 -70 6 -98 21 -98 5 0 6 30 3 68 -8 82 8
120 64 156 75 47 180 155 207 212 23 49 75 276 75 331 0 12 11 33 24 46 41 41
76 118 76 166 0 40 -5 49 -46 87 -45 42 -45 43 -48 116 -2 40 -4 83 -5 96 0
13 -7 22 -17 22 -11 0 -14 -5 -10 -17z"/>
<path d="M1080 1938 c0 -9 16 -13 50 -12 65 2 68 3 50 14 -22 15 -100 13 -100
-2z"/>
<path d="M1765 1943 c-40 -11 -72 -53 -40 -53 8 0 15 4 15 10 0 5 17 14 39 20
45 12 127 -1 168 -26 40 -25 113 -96 113 -110 0 -15 29 -39 37 -30 11 11 -31
77 -72 113 -61 53 -112 75 -180 79 -33 1 -69 0 -80 -3z"/>
<path d="M747 1903 c-4 -3 -7 -55 -7 -113 0 -88 -3 -110 -17 -121 -24 -21 -53
-89 -53 -129 0 -87 59 -180 114 -180 14 0 26 -6 27 -12 5 -79 31 -163 63 -211
12 -18 25 -40 28 -49 7 -18 112 -105 138 -115 69 -27 189 -81 206 -93 30 -22
48 -83 40 -142 -5 -39 -4 -49 6 -45 9 3 13 26 12 80 -2 93 -17 121 -82 149
-184 78 -196 84 -256 143 -78 75 -126 172 -126 254 0 45 -8 56 -44 65 -63 16
-116 109 -102 180 4 17 19 49 35 72 28 38 30 46 32 152 2 108 0 129 -14 115z"/>
<path d="M1085 1867 c-28 -21 -16 -28 28 -16 79 21 208 -47 253 -133 16 -32
35 -30 27 2 -8 28 -90 108 -137 132 -53 27 -144 35 -171 15z"/>
<path d="M1655 1854 c-54 -58 -54 -175 2 -284 34 -65 85 -100 151 -100 58 0
51 24 -8 28 -59 4 -95 33 -131 104 -47 93 -43 184 12 244 10 11 19 23 19 27 0
15 -22 6 -45 -19z"/>
<path d="M993 1817 c-53 -57 -86 -146 -80 -210 4 -51 46 -123 82 -142 11 -6
32 -19 47 -29 42 -28 188 -32 239 -6 92 47 144 125 137 205 -5 59 -27 57 -26
-2 2 -84 -47 -152 -135 -187 -35 -14 -130 -12 -184 5 -50 16 -118 82 -132 129
-20 66 10 158 74 228 20 22 32 43 27 46 -6 3 -28 -14 -49 -37z"/>
<path d="M2080 1728 c-16 -127 -49 -176 -147 -220 -41 -18 -57 -38 -30 -38 25
1 93 39 128 72 49 45 87 166 59 183 -5 3 -10 5 -10 3z"/>
<path d="M1802 1698 c2 -12 10 -23 18 -23 22 0 19 39 -3 43 -15 3 -18 -1 -15
-20z"/>
<path d="M1491 1701 c-19 -3 -36 -12 -39 -20 -4 -11 3 -13 28 -8 18 4 41 7 51
7 11 0 19 7 19 15 0 16 -4 16 -59 6z"/>
<path d="M1152 1678 c-13 -13 2 -38 24 -38 20 0 27 19 14 35 -15 18 -22 19
-38 3z"/>
<path d="M1493 1293 c-7 -2 -13 -10 -13 -17 0 -9 16 -12 58 -10 31 2 60 3 65
4 4 0 7 7 7 15 0 12 -12 15 -52 14 -29 0 -59 -3 -65 -6z"/>
<path d="M1875 850 c-7 -11 -2 -13 40 -11 17 1 38 -4 47 -11 39 -29 198 -407
198 -470 0 -22 -4 -22 -66 -2 -96 33 -99 38 -112 169 -16 165 -40 202 -98 156
-15 -12 -35 -21 -46 -21 -11 0 -27 -4 -37 -10 -20 -10 -210 -220 -314 -347
-37 -45 -73 -83 -80 -86 -19 -7 -3 -17 18 -11 11 3 35 25 54 50 19 25 57 71
85 103 28 32 88 100 134 152 93 107 124 129 176 129 28 0 38 5 45 22 15 42 27
-10 47 -207 8 -75 35 -98 155 -130 69 -18 76 -10 55 67 -29 106 -84 247 -139
358 l-52 105 -52 3 c-28 2 -54 -2 -58 -8z"/>
<path d="M1152 789 c-60 -24 -87 -58 -118 -153 -16 -46 -25 -60 -42 -63 -13
-1 -39 -11 -60 -22 -20 -10 -59 -26 -87 -34 -121 -37 -245 -112 -308 -186 -22
-26 -71 -118 -153 -281 -12 -25 -20 -47 -17 -50 8 -9 41 44 103 167 55 108 71
131 136 192 62 58 137 104 148 89 4 -5 76 -412 76 -430 0 -10 7 -18 15 -18 10
0 13 8 10 28 -3 15 -14 81 -25 147 -11 66 -24 143 -30 170 -21 111 -20 120 8
132 90 38 185 73 189 69 2 -2 -8 -28 -23 -57 -35 -71 -74 -174 -74 -200 0 -15
5 -20 23 -17 16 2 43 34 94 112 39 60 83 120 96 135 14 14 39 50 57 79 33 54
50 65 50 34 0 -11 8 -26 18 -35 18 -17 120 -47 159 -47 31 0 42 -25 47 -111 3
-52 9 -75 19 -77 11 -2 12 12 1 94 -7 53 -16 100 -21 104 -4 4 -44 15 -87 24
-46 9 -87 23 -97 33 -21 23 -34 63 -20 63 6 0 11 5 11 10 0 6 -8 10 -19 10
-11 0 -35 -24 -61 -62 -24 -35 -61 -84 -81 -109 -21 -25 -61 -85 -89 -132 -28
-48 -55 -89 -60 -92 -18 -11 -10 30 21 100 17 39 51 120 76 180 24 61 55 124
67 140 23 30 100 65 144 65 12 0 22 5 22 10 0 16 -61 10 -118 -11z"/>
<path d="M2086 683 c-11 -12 6 -23 35 -23 17 0 65 -14 108 -31 l79 -31 -5 -57
c-3 -32 0 -156 7 -277 7 -120 13 -229 13 -241 -1 -14 5 -23 14 -23 13 0 14 12
9 73 -4 39 -9 108 -11 152 -2 44 -7 137 -11 206 -7 134 -3 150 36 129 14 -8
18 -17 14 -38 -3 -15 1 -106 9 -202 8 -96 12 -208 10 -247 -3 -63 -1 -73 13
-73 18 0 17 46 -2 413 -4 80 -3 127 3 127 25 0 185 -125 226 -177 119 -150
118 -148 171 -290 25 -64 46 -94 46 -62 0 22 -81 216 -98 235 -9 10 -29 37
-44 60 -51 79 -138 162 -223 214 -46 27 -88 50 -92 50 -5 0 -32 15 -61 34 -78
50 -227 98 -246 79z"/>
<path d="M696 408 c-7 -28 9 -138 35 -237 10 -41 19 -89 19 -107 0 -38 9 -64
21 -64 12 0 3 80 -21 190 -11 47 -22 120 -26 163 -7 77 -17 97 -28 55z"/>
</g>
</svg>
